<?xml version="1.0" standalone="no"?>
<!DOCTYPE svg PUBLIC "-//W3C//DTD SVG 20010904//EN"
 "http://www.w3.org/TR/2001/REC-SVG-20010904/DTD/svg10.dtd">
<svg version="1.0" xmlns="http://www.w3.org/2000/svg"
 width="600.000000pt" height="528.000000pt" viewBox="0 0 600.000000 528.000000"
 preserveAspectRatio="xMidYMid meet">

<g transform="translate(0.000000,528.000000) scale(0.100000,-0.100000)"
fill="#000000" stroke="none">
<path d="M4140 4620 c-1020 -362 -2368 -840 -2995 -1062 l-1140 -404 -3 -1578
c-2 -1501 -1 -1578 15 -1571 29 11 1853 658 5018 1780 523 185 953 340 958
344 4 4 6 714 5 1578 l-3 1571 -1855 -658z m1430 -1073 l0 -1104 -392 -139
c-215 -76 -395 -141 -400 -142 -4 -2 -7 495 -6 1103 l3 1108 385 138 c212 75
391 138 398 138 9 1 12 -226 12 -1102z m-940 -264 c0 -898 -2 -1035 -14 -1023
-8 8 -188 235 -400 505 l-386 489 0 392 0 392 73 26 c216 79 713 255 720 255
4 1 7 -466 7 -1036z m-749 -324 c375 -473 677 -864 673 -869 -13 -11 -784
-282 -794 -278 -4 2 -47 51 -94 111 -48 59 -90 107 -94 107 -4 0 -153 -52
-331 -115 -177 -63 -327 -115 -332 -115 -5 0 -9 118 -9 288 l0 287 155 55 c85
30 155 58 155 63 0 4 -70 95 -155 201 l-155 194 2 412 3 413 145 52 c80 29
146 53 147 54 1 0 309 -386 684 -860z m-1121 -336 c0 -892 -2 -1035 -14 -1023
-8 8 -188 235 -400 505 l-386 490 0 391 0 391 393 140 c215 77 395 141 400
142 4 0 7 -466 7 -1036z m-1522 -609 l-3 -1106 -390 -139 c-214 -76 -396 -139
-403 -139 -10 0 -12 224 -10 1102 l3 1103 395 141 c217 78 398 143 403 143 4
1 6 -497 5 -1105z m806 236 c355 -448 646 -817 646 -821 0 -4 -126 -50 -671
-243 l-126 -45 -257 325 -256 324 0 647 c0 389 4 643 9 638 5 -6 300 -377 655
-825z"/>
</g>
</svg>
